Coordinates
version=1
nRows=5
nColumns=40
inDegrees=yes

Units are S.I. units (second, meters, Newtons, ...)
If the header above contains a line with 'inDegrees', this indicates whether rotational values are in degrees (yes) or radians (no).

endheader
time	pelvis_tilt	pelvis_list	pelvis_rotation	pelvis_tx	pelvis_ty	pelvis_tz	hip_flexion_r	hip_adduction_r	hip_rotation_r	knee_angle_r	knee_angle_r_beta	ankle_angle_r	subtalar_angle_r	mtp_angle_r	hip_flexion_l	hip_adduction_l	hip_rotation_l	knee_angle_l	knee_angle_l_beta	ankle_angle_l	subtalar_angle_l	mtp_angle_l	lumbar_extension	lumbar_bending	lumbar_rotation	arm_flex_r	arm_add_r	arm_rot_r	elbow_flex_r	pro_sup_r	wrist_flex_r	wrist_dev_r	arm_flex_l	arm_add_l	arm_rot_l	elbow_flex_l	pro_sup_l	wrist_flex_l	wrist_dev_l
      4.52500000	    -39.01846182	     -2.73152092	      5.75094362	     -0.39057379	      0.68762307	     -0.75400491	     91.00991564	     -3.32021331	     -8.75654748	     92.54743737	      1.61525750	     28.97500704	      0.00000000	      0.00000000	     43.41065306	     -4.39149183	      5.02935333	     94.27184549	      1.64535410	    -11.72759592	      0.00000000	      0.00000000	      2.44663134	      7.26289415	     -6.04664906	     89.96934394	     -1.57805991	      8.05409267	     57.73413887	     63.16955628	      0.00000000	      0.00000000	     89.95707216	     -8.63327738	      3.53094109	     54.25465959	     69.55344489	      0.00000000	      0.00000000
      4.53000000	    -38.99890612	     -2.72842147	      5.75506296	     -0.39060196	      0.68834370	     -0.75401467	     90.96180610	     -3.32839744	     -8.76526579	     92.51114550	      1.61462408	     28.95378968	      0.00000000	      0.00000000	     43.45100150	     -4.38204844	      5.00092683	     94.26780336	      1.64528355	    -11.73168461	      0.00000000	      0.00000000	      2.45973612	      7.27240972	     -6.02848317	     89.96932486	     -1.58216674	      8.05202720	     57.75028579	     63.17636794	      0.00000000	      0.00000000	     89.95702454	     -8.63149580	      3.53355900	     54.27614719	     69.56373127	      0.00000000	      0.00000000
      4.53500000	    -38.97861892	     -2.69856239	      5.74029768	     -0.39047979	      0.68925113	     -0.75399540	     90.78767651	     -3.37561596	     -8.82325791	     92.24071644	      1.60990421	     28.82958626	      0.00000000	      0.00000000	     43.52368011	     -4.39650709	      4.94122377	     94.40169518	      1.64762040	    -11.71382631	      0.00000000	      0.00000000	      2.46707467	      7.21756397	     -5.94154464	     89.96932945	     -1.66161240	      8.06870140	     57.64597225	     63.21009482	      0.00000000	      0.00000000	     89.95690525	     -8.57606794	      3.60028685	     54.25763380	     69.62030884	      0.00000000	      0.00000000
      4.54000000	    -38.97222006	     -2.69614890	      5.74837813	     -0.39041823	      0.68997374	     -0.75393084	     90.74878888	     -3.38349689	     -8.82647061	     92.21187362	      1.60940080	     28.81284436	      0.00000000	      0.00000000	     43.56252321	     -4.40024902	      4.91095248	     94.39521128	      1.64750723	    -11.70436915	      0.00000000	      0.00000000	      2.48838358	      7.21635252	     -5.93645449	     89.96925616	     -1.66742097	      8.06497125	     57.66069524	     63.21573650	      0.00000000	      0.00000000	     89.95684038	     -8.56900815	      3.60343966	     54.27391225	     69.62879264	      0.00000000	      0.00000000
      4.54500000	    -38.92206942	     -2.65260130	      5.76543146	     -0.39054747	      0.69088577	     -0.75389981	     90.58185534	     -3.43561142	     -8.83821484	     91.96293774	      1.60505605	     28.69659279	      0.00000000	      0.00000000	     43.64081596	     -4.40743250	      4.78108403	     94.49900985	      1.64931886	    -11.67947750	      0.00000000	      0.00000000	      2.45620618	      7.16793750	     -5.92496358	     89.96925791	     -1.69773275	      8.06633923	     57.65274611	     63.24717405	      0.00000000	      0.00000000	     89.95695793	     -8.55509821	      3.64909749	     54.22993131	     69.67670747	      0.00000000	      0.00000000
